<svg width="458" height="381" viewBox="0 0 458 381" fill="none" xmlns="http://www.w3.org/2000/svg">
<g clip-path="url(#clip0)">
<path d="M111.487 99H46.8604C44.1004 99 41.863 101.239 41.863 104V229.97C41.863 232.731 44.1004 234.97 46.8604 234.97H111.487C114.247 234.97 116.484 232.731 116.484 229.97V104C116.484 101.239 114.247 99 111.487 99Z" fill="url(#paint0_linear)"/>
<path d="M109.768 101.235H48.5797C45.8197 101.235 43.5823 103.474 43.5823 106.235V226.81C43.5823 229.571 45.8197 231.81 48.5797 231.81H109.768C112.528 231.81 114.765 229.571 114.765 226.81V106.235C114.765 103.474 112.528 101.235 109.768 101.235Z" fill="white"/>
<path d="M106.931 110.221L51.8198 110.298L51.9681 216.558L107.079 216.481L106.931 110.221Z" fill="#E6E6E6"/>
<path d="M79.5356 228.68C81.9617 228.676 83.9255 226.657 83.922 224.168C83.9186 221.68 81.9491 219.666 79.5231 219.67C77.0971 219.673 75.1332 221.693 75.1367 224.181C75.1401 226.669 77.1096 228.683 79.5356 228.68Z" fill="#DBDBDB"/>
<path d="M71.0241 106.212C71.5099 106.211 71.9031 105.807 71.9024 105.31C71.9017 104.813 71.5074 104.411 71.0216 104.412C70.5359 104.412 70.1427 104.816 70.1433 105.313C70.144 105.81 70.5384 106.212 71.0241 106.212Z" fill="#DBDBDB"/>
<path d="M88.098 104.613L75.4746 104.63C75.1986 104.631 74.9752 104.855 74.9756 105.131L74.976 105.481C74.9764 105.757 75.2005 105.981 75.4765 105.98L88.0998 105.963C88.3758 105.962 88.5993 105.738 88.5989 105.462L88.5984 105.112C88.598 104.836 88.374 104.612 88.098 104.613Z" fill="#DBDBDB"/>
<path d="M95.0501 171.88H63.8464V204.66H95.0501V171.88Z" fill="url(#paint1_linear)"/>
<path d="M93.6959 173.305H65.2058V203.235H93.6959V173.305Z" fill="white"/>
<g opacity="0.5">
<path opacity="0.5" d="M81.6072 186.87V186.305H83.1064V183.41C83.5605 182.72 83.8221 181.921 83.8642 181.096C83.9062 180.272 83.7272 179.45 83.3455 178.718C82.9639 177.985 82.3936 177.368 81.6936 176.93C80.9936 176.493 80.1893 176.25 79.364 176.227C78.5388 176.205 77.7225 176.403 76.9996 176.802C76.2768 177.201 75.6737 177.786 75.2527 178.497C74.8317 179.207 74.6081 180.018 74.6051 180.844C74.6021 181.67 74.8197 182.481 75.2355 183.195V186.305H76.8897V186.97C74.8637 187.529 73.0768 188.738 71.8032 190.41C70.5295 192.083 69.8393 194.127 69.8384 196.23V204.66H89.0733V196.23C89.0722 194.054 88.333 191.944 86.9767 190.243C85.6203 188.543 83.7272 187.354 81.6072 186.87Z" fill="url(#paint2_linear)"/>
</g>
<path d="M82.7717 181H75.6504V186.7H82.7717V181Z" fill="#F55F44"/>
<path d="M77.1896 187H81.6872C83.3917 187 85.0263 187.677 86.2315 188.883C87.4368 190.089 88.1139 191.725 88.1139 193.43V203.32H70.7629V193.42C70.7656 191.716 71.4438 190.083 72.6488 188.88C73.8537 187.676 75.4869 187 77.1896 187Z" fill="#FDD835"/>
<path d="M79.8231 184.15H78.7187C77.8493 184.15 77.1445 184.855 77.1445 185.725V187.895C77.1445 188.765 77.8493 189.47 78.7187 189.47H79.8231C80.6925 189.47 81.3973 188.765 81.3973 187.895V185.725C81.3973 184.855 80.6925 184.15 79.8231 184.15Z" fill="#FDA57D"/>
<path d="M78.459 189.31L79.2536 190.47L80.0881 189.31H78.459Z" fill="#FDA57D"/>
<path opacity="0.1" d="M74.0312 193.5C74.0312 193.5 73.1867 201.91 73.7314 202.455L74.0312 193.5Z" fill="black"/>
<path opacity="0.1" d="M84.4756 193.5C84.4756 193.5 85.3202 201.91 84.7754 202.455L84.4756 193.5Z" fill="black"/>
<path opacity="0.05" d="M79.2735 186.735C80.0289 186.736 80.7646 186.494 81.3724 186.045C81.2928 185.545 81.0378 185.09 80.6532 184.761C80.2686 184.432 79.7794 184.251 79.2735 184.25C78.7675 184.251 78.2783 184.432 77.8937 184.761C77.5091 185.09 77.2541 185.545 77.1746 186.045C77.7823 186.494 78.518 186.736 79.2735 186.735Z" fill="black"/>
<path d="M79.2734 185.97C81.589 185.97 83.4662 184.092 83.4662 181.775C83.4662 179.458 81.589 177.58 79.2734 177.58C76.9577 177.58 75.0806 179.458 75.0806 181.775C75.0806 184.092 76.9577 185.97 79.2734 185.97Z" fill="#F55F44"/>
<path d="M79.2734 186.63C81.2302 186.63 82.8165 185.043 82.8165 183.085C82.8165 181.127 81.2302 179.54 79.2734 179.54C77.3165 179.54 75.7302 181.127 75.7302 183.085C75.7302 185.043 77.3165 186.63 79.2734 186.63Z" fill="#FDA57D"/>
<path d="M75.7203 183.305C75.8583 183.305 75.9702 183.104 75.9702 182.855C75.9702 182.606 75.8583 182.405 75.7203 182.405C75.5823 182.405 75.4705 182.606 75.4705 182.855C75.4705 183.104 75.5823 183.305 75.7203 183.305Z" fill="#FDA57D"/>
<path d="M82.8317 183.305C82.9697 183.305 83.0815 183.104 83.0815 182.855C83.0815 182.606 82.9697 182.405 82.8317 182.405C82.6937 182.405 82.5818 182.606 82.5818 182.855C82.5818 183.104 82.6937 183.305 82.8317 183.305Z" fill="#FDA57D"/>
<path d="M103.496 117.13H55.4009V119.22H103.496V117.13Z" fill="white"/>
<path d="M103.496 121.31H55.4009V123.4H103.496V121.31Z" fill="white"/>
<path d="M82.5866 125.495H55.4009V127.585H82.5866V125.495Z" fill="white"/>
<path d="M95.1301 129.68H55.4009V131.77H95.1301V129.68Z" fill="white"/>
<path d="M88.8583 133.865H55.4009V135.955H88.8583V133.865Z" fill="white"/>
<path d="M103.496 138.05H55.4009V140.14H103.496V138.05Z" fill="white"/>
<path d="M99.318 144.325H57.4949V161.06H99.318V144.325Z" fill="white"/>
<path d="M352.55 228.565C352.55 228.565 359.547 276.66 400.62 292.635L317.514 292.75L234.407 292.865C275.416 276.775 282.307 228.66 282.307 228.66L352.55 228.565Z" fill="#E0E0E0"/>
<path d="M401.361 292.625L233.579 292.859L233.593 303.019L401.375 302.785L401.361 292.625Z" fill="url(#paint3_linear)"/>
<path d="M400.632 292.626L234.419 292.858L234.43 300.698L400.643 300.466L400.632 292.626Z" fill="#F5F5F5"/>
<path d="M452.383 55.5L182.075 55.875C180.604 55.9104 179.208 56.5286 178.193 57.5938C177.178 58.6589 176.628 60.0838 176.662 61.555L176.872 219.345V224.6C176.872 236.6 186.182 246.295 197.636 246.28L437.316 245.95C448.765 245.95 458.035 236.205 458.02 224.215V218.965L457.81 61.175C457.827 60.4457 457.699 59.7203 457.436 59.0403C457.172 58.3602 456.777 57.7389 456.272 57.2118C455.768 56.6847 455.165 56.2622 454.498 55.9685C453.831 55.6748 453.112 55.5156 452.383 55.5Z" fill="url(#paint4_linear)"/>
<path d="M185.283 60.785H448.89C450.315 60.785 451.681 61.3513 452.689 62.3593C453.696 63.3673 454.262 64.7345 454.262 66.16V216.32H179.906V66.16C179.906 65.4538 180.045 64.7544 180.315 64.102C180.585 63.4495 180.982 62.8567 181.481 62.3576C181.98 61.8584 182.573 61.4626 183.226 61.1928C183.878 60.9229 184.577 60.7844 185.283 60.785Z" fill="white"/>
<path d="M435.477 241.28L199.421 241.605C196.906 241.608 194.415 241.116 192.09 240.156C189.766 239.196 187.653 237.788 185.872 236.011C184.092 234.234 182.678 232.124 181.713 229.8C180.747 227.477 180.249 224.986 180.246 222.47V215.97L454.602 215.59V222.09C454.606 224.607 454.114 227.099 453.155 229.426C452.196 231.752 450.788 233.867 449.012 235.649C447.236 237.431 445.127 238.845 442.804 239.812C440.482 240.778 437.992 241.277 435.477 241.28Z" fill="#F5F5F5"/>
<path d="M441.734 73.385H193.459V198.945H441.734V73.385Z" fill="#E6E6E6"/>
<path d="M420.36 81.665H376.413V127.835H420.36V81.665Z" fill="url(#paint5_linear)"/>
<path d="M418.451 83.675H378.322V125.83H418.451V83.675Z" fill="white"/>
<g opacity="0.5">
<path opacity="0.5" d="M401.13 102.42L400.63 102.24L400.6 102.285H400.57V100.925C400.57 100.758 400.557 100.59 400.53 100.425C401.34 99.8289 401.959 99.011 402.314 98.07C403.014 97.1623 403.446 96.0765 403.56 94.9359C403.675 93.7952 403.468 92.6452 402.962 91.6163C402.457 90.5875 401.673 89.7209 400.701 89.1149C399.728 88.5088 398.605 88.1876 397.459 88.1876C396.313 88.1876 395.191 88.5088 394.218 89.1149C393.245 89.7209 392.462 90.5875 391.956 91.6163C391.451 92.6452 391.244 93.7952 391.358 94.9359C391.473 96.0765 391.904 97.1623 392.604 98.07C392.959 99.011 393.579 99.8289 394.388 100.425C394.362 100.59 394.348 100.758 394.348 100.925V102.425C391.667 103.166 389.302 104.766 387.617 106.981C385.931 109.195 385.019 111.902 385.018 114.685V125.84H410.405V114.67C410.406 111.895 409.5 109.197 407.825 106.985C406.151 104.774 403.8 103.17 401.13 102.42Z" fill="url(#paint6_linear)"/>
</g>
<path d="M396.942 102.145H398.491C401.53 102.145 404.445 103.353 406.594 105.503C408.743 107.653 409.95 110.569 409.95 113.61V125.11H385.463V113.61C385.463 112.103 385.76 110.61 386.337 109.218C386.914 107.826 387.76 106.561 388.826 105.496C389.892 104.431 391.158 103.587 392.551 103.012C393.943 102.437 395.435 102.142 396.942 102.145Z" fill="#514ABF"/>
<path d="M397.657 98.15H397.282C395.731 98.15 394.473 99.4081 394.473 100.96V102.835C394.473 104.387 395.731 105.645 397.282 105.645H397.657C399.208 105.645 400.465 104.387 400.465 102.835V100.96C400.465 99.4081 399.208 98.15 397.657 98.15Z" fill="#FDA57D"/>
<path opacity="0.05" d="M392.395 103.47L394.403 107.78L396.397 105.785L394.403 102.72L392.395 103.47Z" fill="black"/>
<path d="M392.464 103.26L394.463 107.57L396.462 105.57L394.463 102.51L393.544 102.79C393.454 102.818 393.365 102.851 393.279 102.89L392.464 103.26Z" fill="white"/>
<path opacity="0.05" d="M402.549 103.26L400.535 107.78L398.536 105.785L400.59 102.56L402.549 103.26Z" fill="black"/>
<path d="M402.479 103.05L400.48 107.55L398.481 105.55L400.535 102.325L400.91 102.435C401.317 102.551 401.716 102.693 402.104 102.86L402.479 103.05Z" fill="white"/>
<path d="M396.317 105.415L397.437 107.045L398.616 105.415H396.317Z" fill="#FDA57D"/>
<path opacity="0.1" d="M390.081 111.32C390.081 111.32 388.891 123.165 389.661 123.935L390.081 111.32Z" fill="black"/>
<path opacity="0.1" d="M404.793 111.32C404.793 111.32 405.982 123.165 405.213 123.935L404.793 111.32Z" fill="black"/>
<path opacity="0.05" d="M397.467 101.785C398.531 101.785 399.567 101.445 400.425 100.815C400.312 100.111 399.953 99.4704 399.411 99.0077C398.868 98.545 398.179 98.2906 397.467 98.29C396.754 98.2906 396.065 98.545 395.523 99.0077C394.981 99.4704 394.621 100.111 394.508 100.815C395.366 101.445 396.403 101.785 397.467 101.785Z" fill="black"/>
<path d="M397.467 100.705C400.726 100.705 403.368 98.0613 403.368 94.8C403.368 91.5388 400.726 88.895 397.467 88.895C394.207 88.895 391.565 91.5388 391.565 94.8C391.565 98.0613 394.207 100.705 397.467 100.705Z" fill="black"/>
<path d="M397.467 101.645C400.224 101.645 402.459 99.4087 402.459 96.65C402.459 93.8914 400.224 91.655 397.467 91.655C394.71 91.655 392.474 93.8914 392.474 96.65C392.474 99.4087 394.71 101.645 397.467 101.645Z" fill="#FDA57D"/>
<path opacity="0.05" d="M393.444 91.7L394.703 93.24C394.703 93.24 400.235 93.74 400.865 92.47C401.495 91.2 397.222 90.295 397.222 90.295L393.444 91.7Z" fill="black"/>
<path d="M393.444 91.56L394.703 93.1C394.703 93.1 400.235 93.6 400.865 92.33C401.495 91.06 397.222 90.155 397.222 90.155L393.444 91.56Z" fill="black"/>
<path d="M392.464 96.955C392.658 96.955 392.814 96.6729 392.814 96.3249C392.814 95.977 392.658 95.6949 392.464 95.6949C392.271 95.6949 392.115 95.977 392.115 96.3249C392.115 96.6729 392.271 96.955 392.464 96.955Z" fill="#FDA57D"/>
<path d="M402.479 96.955C402.672 96.955 402.829 96.6729 402.829 96.3249C402.829 95.977 402.672 95.6949 402.479 95.6949C402.286 95.6949 402.129 95.977 402.129 96.3249C402.129 96.6729 402.286 96.955 402.479 96.955Z" fill="#FDA57D"/>
<path d="M420.615 137.05H376.668V183.22H420.615V137.05Z" fill="url(#paint7_linear)"/>
<path d="M418.706 139.055H378.577V181.21H418.706V139.055Z" fill="white"/>
<g opacity="0.5">
<path opacity="0.5" d="M401.674 158.05V156.5C401.674 156.425 401.674 156.345 401.674 156.27C402.524 155.633 403.173 154.766 403.543 153.77C404.158 152.972 404.58 152.043 404.776 151.055C404.972 150.068 404.936 149.048 404.673 148.076C404.409 147.104 403.924 146.206 403.255 145.453C402.587 144.7 401.753 144.112 400.82 143.735C400.891 143.418 400.892 143.089 400.823 142.772C400.753 142.454 400.614 142.156 400.417 141.898C400.219 141.64 399.968 141.428 399.68 141.278C399.391 141.128 399.074 141.043 398.749 141.029C398.425 141.015 398.101 141.073 397.801 141.198C397.501 141.323 397.233 141.513 397.014 141.753C396.795 141.994 396.632 142.279 396.536 142.59C396.44 142.9 396.413 143.228 396.457 143.55C395.45 143.86 394.533 144.41 393.784 145.152C393.035 145.895 392.478 146.808 392.159 147.813C391.84 148.818 391.77 149.885 391.953 150.924C392.137 151.962 392.57 152.94 393.214 153.775C393.584 154.771 394.233 155.638 395.083 156.275C395.083 156.35 395.083 156.425 395.083 156.505V158.145C392.293 158.68 389.775 160.171 387.963 162.36C386.152 164.55 385.158 167.302 385.153 170.145V183.3H412.189V170.165C412.188 167.217 411.124 164.369 409.192 162.143C407.261 159.918 404.591 158.464 401.674 158.05Z" fill="url(#paint8_linear)"/>
</g>
<path d="M397.866 158.33H399.416C400.92 158.33 402.411 158.627 403.801 159.203C405.191 159.779 406.454 160.623 407.518 161.688C408.582 162.753 409.427 164.016 410.002 165.407C410.578 166.798 410.875 168.289 410.875 169.795V181.295H386.387V169.795C386.387 166.754 387.595 163.838 389.744 161.688C391.893 159.538 394.807 158.33 397.846 158.33H397.866Z" fill="white"/>
<path d="M398.576 154.335H398.201C396.65 154.335 395.393 155.593 395.393 157.145V159.02C395.393 160.572 396.65 161.83 398.201 161.83H398.576C400.127 161.83 401.385 160.572 401.385 159.02V157.145C401.385 155.593 400.127 154.335 398.576 154.335Z" fill="#FDB797"/>
<path d="M397.242 161.6L398.361 163.23L399.536 161.6H397.242Z" fill="#FDB797"/>
<path opacity="0.1" d="M391.005 167.5C391.005 167.5 389.816 179.345 390.585 180.115L391.005 167.5Z" fill="black"/>
<path opacity="0.1" d="M405.718 167.5C405.718 167.5 406.907 179.345 406.137 180.115L405.718 167.5Z" fill="black"/>
<path opacity="0.05" d="M398.411 157.97C399.476 157.97 400.512 157.63 401.37 157C401.257 156.296 400.897 155.655 400.355 155.193C399.813 154.73 399.124 154.476 398.411 154.475C397.692 154.466 396.993 154.716 396.443 155.18C395.892 155.643 395.527 156.289 395.413 157C396.282 157.638 397.333 157.979 398.411 157.97Z" fill="black"/>
<path d="M398.391 156.89C401.651 156.89 404.293 154.246 404.293 150.985C404.293 147.724 401.651 145.08 398.391 145.08C395.132 145.08 392.489 147.724 392.489 150.985C392.489 154.246 395.132 156.89 398.391 156.89Z" fill="#FDD835"/>
<path d="M398.391 157.83C401.149 157.83 403.384 155.594 403.384 152.835C403.384 150.076 401.149 147.84 398.391 147.84C395.634 147.84 393.399 150.076 393.399 152.835C393.399 155.594 395.634 157.83 398.391 157.83Z" fill="#FDB797"/>
<path d="M393.384 153.14C393.577 153.14 393.734 152.858 393.734 152.51C393.734 152.162 393.577 151.88 393.384 151.88C393.191 151.88 393.034 152.162 393.034 152.51C393.034 152.858 393.191 153.14 393.384 153.14Z" fill="#FDB797"/>
<path d="M403.404 153.14C403.597 153.14 403.753 152.858 403.753 152.51C403.753 152.162 403.597 151.88 403.404 151.88C403.21 151.88 403.054 152.162 403.054 152.51C403.054 152.858 403.21 153.14 403.404 153.14Z" fill="#FDB797"/>
<path d="M398.641 147.085C399.748 147.085 400.645 146.187 400.645 145.08C400.645 143.973 399.748 143.075 398.641 143.075C397.534 143.075 396.637 143.973 396.637 145.08C396.637 146.187 397.534 147.085 398.641 147.085Z" fill="#FDD835"/>
<path d="M394.628 147.085C394.628 147.085 396.627 151.085 402.654 149.085L400.655 147.085H394.628Z" fill="#FDD835"/>
<path d="M323.825 89.14H213.393V93.945H323.825V89.14Z" fill="white"/>
<path d="M323.825 98.745H213.393V103.55H323.825V98.745Z" fill="white"/>
<path d="M275.81 108.355H213.393V113.16H275.81V108.355Z" fill="white"/>
<path d="M304.62 117.96H213.393V122.765H304.62V117.96Z" fill="white"/>
<path d="M290.213 127.57H213.393V132.375H290.213V127.57Z" fill="white"/>
<path d="M323.825 137.175H213.393V141.98H323.825V137.175Z" fill="white"/>
<path d="M314.22 151.59H218.196V190.02H314.22V151.59Z" fill="white"/>
<path d="M69.3537 305.315H16.5364V17.08H328.628V41.1" stroke="#3AD29F" stroke-width="6" stroke-miterlimit="10" stroke-dasharray="12 12"/>
<g opacity="0.5">
<path opacity="0.5" d="M18.1405 36.3C28.1592 36.3 36.281 28.174 36.281 18.15C36.281 8.12603 28.1592 0 18.1405 0C8.12178 0 0 8.12603 0 18.15C0 28.174 8.12178 36.3 18.1405 36.3Z" fill="url(#paint9_linear)"/>
</g>
<path d="M18.1404 35.2299C27.5685 35.2299 35.2114 27.583 35.2114 18.1499C35.2114 8.71692 27.5685 1.06995 18.1404 1.06995C8.71231 1.06995 1.06934 8.71692 1.06934 18.1499C1.06934 27.583 8.71231 35.2299 18.1404 35.2299Z" fill="#69F0AE"/>
<path d="M11.7389 17.08L18.1406 22.95L27.2058 9.60498L30.4091 12.275L18.1406 28.29L9.07031 18.15L11.7389 17.08Z" fill="white"/>
<path d="M212.034 166.014L90.6874 166.184C85.9485 166.191 82.1123 170.04 82.1189 174.781L82.3947 372.431C82.4014 377.172 86.2483 381.01 90.9872 381.004L212.334 380.834C217.072 380.828 220.909 376.979 220.902 372.237L220.626 174.587C220.62 169.846 216.773 166.008 212.034 166.014Z" fill="url(#paint10_linear)"/>
<path d="M211.437 182.425L91.8247 182.592L92.0761 362.767L211.688 362.6L211.437 182.425Z" fill="url(#paint11_linear)"/>
<path d="M210.069 169.262L92.6609 169.426C89.1612 169.431 86.3282 172.274 86.3331 175.775L86.6014 368.02C86.6062 371.521 89.4472 374.356 92.9469 374.351L210.355 374.187C213.855 374.182 216.688 371.34 216.683 367.838L216.415 175.593C216.41 172.092 213.569 169.257 210.069 169.262Z" fill="white"/>
<path d="M207.787 184.925L95.4512 185.082L95.691 356.962L208.027 356.805L207.787 184.925Z" fill="#E6E6E6"/>
<path d="M151.616 370.475C154.171 370.475 156.243 368.351 156.243 365.73C156.243 363.109 154.171 360.985 151.616 360.985C149.06 360.985 146.988 363.109 146.988 365.73C146.988 368.351 149.06 370.475 151.616 370.475Z" fill="#DBDBDB"/>
<path d="M132.174 179.176C133.027 179.175 133.717 178.467 133.716 177.594C133.715 176.721 133.022 176.015 132.169 176.016C131.317 176.017 130.626 176.726 130.627 177.598C130.629 178.471 131.321 179.177 132.174 179.176Z" fill="#DBDBDB"/>
<path d="M159.566 176.608L140.266 176.635C140.056 176.635 139.886 176.806 139.887 177.016L139.888 177.835C139.888 178.045 140.058 178.215 140.268 178.215L159.568 178.188C159.778 178.188 159.948 178.017 159.947 177.807L159.946 176.987C159.946 176.778 159.776 176.608 159.566 176.608Z" fill="#DBDBDB"/>
<path d="M195.008 290.9H151.061V337.07H195.008V290.9Z" fill="url(#paint12_linear)"/>
<path d="M193.099 292.91H152.97V335.065H193.099V292.91Z" fill="white"/>
<g opacity="0.5">
<path opacity="0.5" d="M176.447 311.66L175.948 311.48L175.918 311.525H175.888V310.165C175.888 309.998 175.874 309.83 175.848 309.665C176.657 309.069 177.277 308.251 177.632 307.31C178.332 306.402 178.763 305.317 178.878 304.176C178.993 303.035 178.785 301.885 178.28 300.856C177.774 299.827 176.991 298.961 176.018 298.355C175.046 297.749 173.923 297.428 172.777 297.428C171.631 297.428 170.508 297.749 169.536 298.355C168.563 298.961 167.779 299.827 167.274 300.856C166.769 301.885 166.561 303.035 166.676 304.176C166.79 305.317 167.222 306.402 167.922 307.31C168.277 308.251 168.896 309.069 169.706 309.665C169.679 309.83 169.666 309.998 169.666 310.165V311.665C166.984 312.406 164.62 314.006 162.934 316.221C161.249 318.435 160.336 321.142 160.336 323.925V335.08H185.748V323.905C185.746 321.128 184.836 318.428 183.157 316.217C181.477 314.006 179.121 312.406 176.447 311.66Z" fill="url(#paint13_linear)"/>
</g>
<path d="M172.26 311.38H173.809C176.848 311.38 179.763 312.588 181.912 314.738C184.061 316.888 185.268 319.804 185.268 322.845V334.345H160.781V322.845C160.781 321.338 161.078 319.845 161.655 318.453C162.232 317.061 163.078 315.796 164.144 314.731C165.21 313.666 166.476 312.822 167.868 312.247C169.261 311.672 170.753 311.377 172.26 311.38Z" fill="#3AD29F"/>
<path d="M172.974 307.385H172.6C171.048 307.385 169.791 308.643 169.791 310.195V312.07C169.791 313.622 171.048 314.88 172.6 314.88H172.974C174.525 314.88 175.783 313.622 175.783 312.07V310.195C175.783 308.643 174.525 307.385 172.974 307.385Z" fill="#BE7C5E"/>
<path d="M171.635 314.65L172.754 316.28L173.934 314.65H171.635Z" fill="#BE7C5E"/>
<path opacity="0.1" d="M165.398 320.555C165.398 320.555 164.209 332.4 164.979 333.17L165.398 320.555Z" fill="black"/>
<path opacity="0.1" d="M180.111 320.555C180.111 320.555 181.3 332.4 180.53 333.17L180.111 320.555Z" fill="black"/>
<path opacity="0.05" d="M172.784 311C173.849 311 174.885 310.66 175.743 310.03C175.63 309.326 175.27 308.685 174.728 308.223C174.186 307.76 173.497 307.506 172.784 307.505C172.072 307.506 171.383 307.76 170.841 308.223C170.298 308.685 169.939 309.326 169.826 310.03C170.684 310.66 171.72 311 172.784 311Z" fill="black"/>
<path d="M172.784 309.94C176.044 309.94 178.686 307.296 178.686 304.035C178.686 300.774 176.044 298.13 172.784 298.13C169.525 298.13 166.883 300.774 166.883 304.035C166.883 307.296 169.525 309.94 172.784 309.94Z" fill="#444444"/>
<path d="M172.784 310.88C175.542 310.88 177.777 308.644 177.777 305.885C177.777 303.126 175.542 300.89 172.784 300.89C170.027 300.89 167.792 303.126 167.792 305.885C167.792 308.644 170.027 310.88 172.784 310.88Z" fill="#BE7C5E"/>
<path opacity="0.05" d="M168.761 300.935L170.021 302.475C170.021 302.475 175.553 302.975 176.183 301.705C176.812 300.435 172.539 299.53 172.539 299.53L168.761 300.935Z" fill="black"/>
<path d="M168.761 300.795L170.021 302.335C170.021 302.335 175.553 302.835 176.183 301.565C176.812 300.295 172.539 299.39 172.539 299.39L168.761 300.795Z" fill="#444444"/>
<path d="M167.782 306.19C167.975 306.19 168.132 305.908 168.132 305.56C168.132 305.212 167.975 304.93 167.782 304.93C167.589 304.93 167.432 305.212 167.432 305.56C167.432 305.908 167.589 306.19 167.782 306.19Z" fill="#BE7C5E"/>
<path d="M177.797 306.19C177.99 306.19 178.147 305.908 178.147 305.56C178.147 305.212 177.99 304.93 177.797 304.93C177.604 304.93 177.447 305.212 177.447 305.56C177.447 305.908 177.604 306.19 177.797 306.19Z" fill="#BE7C5E"/>
<path d="M168.881 298.545C169.272 298.046 169.811 297.684 170.421 297.51C171.525 297.07 172.674 296.62 173.859 296.7C173.974 296.699 174.087 296.732 174.184 296.795C174.263 296.879 174.329 296.975 174.378 297.08C174.738 297.615 175.748 297.58 175.878 298.21C175.913 298.415 175.828 298.635 175.878 298.835C176.008 299.335 176.712 299.285 177.127 299.57C177.348 299.769 177.482 300.047 177.501 300.345C177.519 300.642 177.421 300.934 177.227 301.16C176.816 301.596 176.283 301.899 175.698 302.03C174.671 302.424 173.554 302.523 172.474 302.315C170.96 301.92 167.417 300.94 168.881 298.545Z" fill="#444444"/>
<path d="M150.031 290.4H106.084V336.57H150.031V290.4Z" fill="url(#paint14_linear)"/>
<path d="M148.122 292.41H107.993V334.565H148.122V292.41Z" fill="white"/>
<g opacity="0.5">
<path opacity="0.5" d="M131.471 311.16L130.971 310.98L130.941 311.025H130.911V309.665C130.912 309.498 130.898 309.33 130.871 309.165C131.681 308.569 132.301 307.751 132.656 306.81C133.355 305.902 133.787 304.817 133.902 303.676C134.016 302.535 133.809 301.385 133.304 300.356C132.798 299.327 132.015 298.461 131.042 297.855C130.069 297.249 128.946 296.928 127.801 296.928C126.655 296.928 125.532 297.249 124.559 297.855C123.587 298.461 122.803 299.327 122.298 300.356C121.792 301.385 121.585 302.535 121.7 303.676C121.814 304.817 122.246 305.902 122.946 306.81C123.3 307.751 123.92 308.569 124.73 309.165C124.703 309.33 124.69 309.498 124.69 309.665V311.165C122.008 311.906 119.643 313.506 117.958 315.721C116.273 317.935 115.36 320.642 115.36 323.425V334.58H140.771V323.405C140.77 320.628 139.86 317.928 138.18 315.717C136.501 313.506 134.145 311.906 131.471 311.16Z" fill="url(#paint15_linear)"/>
</g>
<path d="M127.283 310.88H128.832C130.337 310.88 131.827 311.177 133.218 311.753C134.608 312.329 135.871 313.173 136.935 314.238C137.999 315.303 138.843 316.567 139.419 317.958C139.995 319.349 140.291 320.839 140.291 322.345V333.845H115.804V322.345C115.804 320.838 116.101 319.345 116.678 317.953C117.255 316.561 118.101 315.296 119.168 314.231C120.234 313.166 121.499 312.322 122.892 311.747C124.284 311.172 125.777 310.877 127.283 310.88Z" fill="#514ABF"/>
<path d="M127.998 306.885H127.623C126.072 306.885 124.815 308.143 124.815 309.695V311.57C124.815 313.122 126.072 314.38 127.623 314.38H127.998C129.549 314.38 130.807 313.122 130.807 311.57V309.695C130.807 308.143 129.549 306.885 127.998 306.885Z" fill="#FDA57D"/>
<path opacity="0.1" d="M120.422 320.055C120.422 320.055 119.233 331.9 120.002 332.67L120.422 320.055Z" fill="black"/>
<path opacity="0.1" d="M135.134 320.055C135.134 320.055 136.324 331.9 135.554 332.67L135.134 320.055Z" fill="black"/>
<path opacity="0.05" d="M127.808 310.5C128.872 310.5 129.909 310.16 130.767 309.53C130.654 308.826 130.294 308.185 129.752 307.723C129.21 307.26 128.521 307.006 127.808 307.005C127.095 307.006 126.406 307.26 125.864 307.723C125.322 308.185 124.962 308.826 124.85 309.53C125.707 310.16 126.744 310.5 127.808 310.5Z" fill="black"/>
<path d="M127.808 309.44C131.068 309.44 133.71 306.796 133.71 303.535C133.71 300.274 131.068 297.63 127.808 297.63C124.549 297.63 121.906 300.274 121.906 303.535C121.906 306.796 124.549 309.44 127.808 309.44Z" fill="#444444"/>
<path d="M127.808 310.38C130.565 310.38 132.8 308.144 132.8 305.385C132.8 302.626 130.565 300.39 127.808 300.39C125.051 300.39 122.816 302.626 122.816 305.385C122.816 308.144 125.051 310.38 127.808 310.38Z" fill="#FDA57D"/>
<path opacity="0.05" d="M123.785 300.435L125.045 301.975C125.045 301.975 130.577 302.475 131.206 301.205C131.836 299.935 127.563 299.03 127.563 299.03L123.785 300.435Z" fill="black"/>
<path d="M123.785 300.295L125.045 301.835C125.045 301.835 130.577 302.335 131.206 301.065C131.836 299.795 127.563 298.89 127.563 298.89L123.785 300.295Z" fill="#444444"/>
<path d="M122.806 305.69C122.999 305.69 123.155 305.408 123.155 305.06C123.155 304.712 122.999 304.43 122.806 304.43C122.612 304.43 122.456 304.712 122.456 305.06C122.456 305.408 122.612 305.69 122.806 305.69Z" fill="#FDA57D"/>
<path d="M132.82 305.69C133.013 305.69 133.17 305.408 133.17 305.06C133.17 304.712 133.013 304.43 132.82 304.43C132.627 304.43 132.47 304.712 132.47 305.06C132.47 305.408 132.627 305.69 132.82 305.69Z" fill="#FDA57D"/>
<path d="M189.386 206.915H107.763V210.465H189.386V206.915Z" fill="white"/>
<path d="M189.386 214.015H107.763V217.565H189.386V214.015Z" fill="white"/>
<path d="M153.899 221.115H107.763V224.665H153.899V221.115Z" fill="white"/>
<path d="M175.193 228.22H107.763V231.77H175.193V228.22Z" fill="white"/>
<path d="M164.544 235.32H107.763V238.87H164.544V235.32Z" fill="white"/>
<path d="M189.386 242.42H107.763V245.97H189.386V242.42Z" fill="white"/>
<path d="M182.29 253.075H111.312V281.48H182.29V253.075Z" fill="white"/>
<path d="M124.34 303.5C124.592 303.054 124.801 302.585 124.965 302.1C125.23 301.525 125.649 301.035 126.175 300.683C126.701 300.331 127.315 300.132 127.947 300.107C128.579 300.083 129.206 300.233 129.759 300.542C130.311 300.852 130.767 301.308 131.076 301.86C131.486 302.595 131.621 303.465 132.076 304.175C132.14 304.223 132.214 304.258 132.293 304.276C132.371 304.295 132.453 304.297 132.532 304.282C132.611 304.268 132.687 304.237 132.754 304.192C132.82 304.147 132.877 304.088 132.92 304.02C132.999 303.876 133.045 303.715 133.055 303.551C133.064 303.387 133.037 303.223 132.975 303.07C132.87 302.76 132.695 302.475 132.581 302.17C132.466 301.674 132.298 301.191 132.081 300.73C131.814 300.381 131.472 300.096 131.081 299.895C129.977 299.215 128.698 298.51 127.448 298.895C127.027 299.039 126.628 299.243 126.264 299.5L124.675 300.5C124.164 300.786 123.707 301.16 123.325 301.605C122.981 302.055 122.326 303.4 122.631 303.98C122.991 304.64 124.025 303.915 124.34 303.5Z" fill="#444444"/>
<path d="M126.554 314V333.865H129.487L129.052 314H126.554Z" fill="white"/>
<path d="M126.064 313.73L127.763 316.205L129.552 313.73H126.064Z" fill="#FDA57D"/>
</g>
<defs>
<linearGradient id="paint0_linear" x1="79.1785" y1="235.842" x2="79.1785" y2="99.4371" gradientUnits="userSpaceOnUse">
<stop stop-color="#808080" stop-opacity="0.25"/>
<stop offset="0.54" stop-color="#808080" stop-opacity="0.12"/>
<stop offset="1" stop-color="#808080" stop-opacity="0.1"/>
</linearGradient>
<linearGradient id="paint1_linear" x1="5024.6" y1="13589.4" x2="5024.6" y2="11440.3" gradientUnits="userSpaceOnUse">
<stop stop-color="#808080" stop-opacity="0.25"/>
<stop offset="0.54" stop-color="#808080" stop-opacity="0.12"/>
<stop offset="1" stop-color="#808080" stop-opacity="0.1"/>
</linearGradient>
<linearGradient id="paint2_linear" x1="5854.74" y1="13777" x2="5854.74" y2="12159.9" gradientUnits="userSpaceOnUse">
<stop stop-color="#808080" stop-opacity="0.25"/>
<stop offset="0.54" stop-color="#808080" stop-opacity="0.12"/>
<stop offset="1" stop-color="#808080" stop-opacity="0.1"/>
</linearGradient>
<linearGradient id="paint3_linear" x1="130568" y1="6969.83" x2="130568" y2="6763.28" gradientUnits="userSpaceOnUse">
<stop stop-color="#808080" stop-opacity="0.25"/>
<stop offset="0.54" stop-color="#808080" stop-opacity="0.12"/>
<stop offset="1" stop-color="#808080" stop-opacity="0.1"/>
</linearGradient>
<linearGradient id="paint4_linear" x1="218753" y1="111544" x2="218753" y2="38602.4" gradientUnits="userSpaceOnUse">
<stop stop-color="#808080" stop-opacity="0.25"/>
<stop offset="0.54" stop-color="#808080" stop-opacity="0.12"/>
<stop offset="1" stop-color="#808080" stop-opacity="0.1"/>
</linearGradient>
<linearGradient id="paint5_linear" x1="35410.5" y1="11886" x2="35410.5" y2="7622.61" gradientUnits="userSpaceOnUse">
<stop stop-color="#808080" stop-opacity="0.25"/>
<stop offset="0.54" stop-color="#808080" stop-opacity="0.12"/>
<stop offset="1" stop-color="#808080" stop-opacity="0.1"/>
</linearGradient>
<linearGradient id="paint6_linear" x1="23542.5" y1="10744.6" x2="24833.4" y2="10744.6" gradientUnits="userSpaceOnUse">
<stop stop-color="#808080" stop-opacity="0.25"/>
<stop offset="0.54" stop-color="#808080" stop-opacity="0.12"/>
<stop offset="1" stop-color="#808080" stop-opacity="0.1"/>
</linearGradient>
<linearGradient id="paint7_linear" x1="35433.2" y1="17055.6" x2="35433.2" y2="12792.2" gradientUnits="userSpaceOnUse">
<stop stop-color="#808080" stop-opacity="0.25"/>
<stop offset="0.54" stop-color="#808080" stop-opacity="0.12"/>
<stop offset="1" stop-color="#808080" stop-opacity="0.1"/>
</linearGradient>
<linearGradient id="paint8_linear" x1="25784.3" y1="18556.7" x2="25784.3" y2="14984.3" gradientUnits="userSpaceOnUse">
<stop stop-color="#808080" stop-opacity="0.25"/>
<stop offset="0.54" stop-color="#808080" stop-opacity="0.12"/>
<stop offset="1" stop-color="#808080" stop-opacity="0.1"/>
</linearGradient>
<linearGradient id="paint9_linear" x1="1317" y1="2635.02" x2="1317" y2="0" gradientUnits="userSpaceOnUse">
<stop stop-color="#808080" stop-opacity="0.25"/>
<stop offset="0.54" stop-color="#808080" stop-opacity="0.12"/>
<stop offset="1" stop-color="#808080" stop-opacity="0.1"/>
</linearGradient>
<linearGradient id="paint10_linear" x1="61931.4" y1="181805" x2="61801.9" y2="89087.9" gradientUnits="userSpaceOnUse">
<stop stop-color="#808080" stop-opacity="0.25"/>
<stop offset="0.54" stop-color="#808080" stop-opacity="0.12"/>
<stop offset="1" stop-color="#808080" stop-opacity="0.1"/>
</linearGradient>
<linearGradient id="paint11_linear" x1="151.892" y1="364.513" x2="151.639" y2="183.509" gradientUnits="userSpaceOnUse">
<stop stop-opacity="0.09"/>
<stop offset="0.55" stop-opacity="0.07"/>
<stop offset="1" stop-opacity="0.02"/>
</linearGradient>
<linearGradient id="paint12_linear" x1="15367.7" y1="31416" x2="15367.7" y2="27152.6" gradientUnits="userSpaceOnUse">
<stop stop-color="#808080" stop-opacity="0.25"/>
<stop offset="0.54" stop-color="#808080" stop-opacity="0.12"/>
<stop offset="1" stop-color="#808080" stop-opacity="0.1"/>
</linearGradient>
<linearGradient id="paint13_linear" x1="11915.5" y1="26710.2" x2="13207.7" y2="26710.2" gradientUnits="userSpaceOnUse">
<stop stop-color="#808080" stop-opacity="0.25"/>
<stop offset="0.54" stop-color="#808080" stop-opacity="0.12"/>
<stop offset="1" stop-color="#808080" stop-opacity="0.1"/>
</linearGradient>
<linearGradient id="paint14_linear" x1="11367.5" y1="31369.3" x2="11367.5" y2="27105.9" gradientUnits="userSpaceOnUse">
<stop stop-color="#808080" stop-opacity="0.25"/>
<stop offset="0.54" stop-color="#808080" stop-opacity="0.12"/>
<stop offset="1" stop-color="#808080" stop-opacity="0.1"/>
</linearGradient>
<linearGradient id="paint15_linear" x1="9583.5" y1="26672" x2="10875.7" y2="26672" gradientUnits="userSpaceOnUse">
<stop stop-color="#808080" stop-opacity="0.25"/>
<stop offset="0.54" stop-color="#808080" stop-opacity="0.12"/>
<stop offset="1" stop-color="#808080" stop-opacity="0.1"/>
</linearGradient>
<clipPath id="clip0">
<rect width="458" height="381" fill="white"/>
</clipPath>
</defs>
</svg>
